<svg width="222" height="66" viewBox="0 0 222 66" fill="none" xmlns="http://www.w3.org/2000/svg">
<path d="M1 1H221V65H1V1Z" fill="#FFCA42" stroke="#FFCA42" stroke-width="2"/>
<path d="M63.8936 37.2021C63.3555 37.5299 62.7679 37.7866 62.1309 37.9722C61.4938 38.1577 60.9279 38.2505 60.4331 38.2505C59.4188 38.2505 58.4508 38.0866 57.5293 37.7588C56.2676 37.3011 55.2533 36.6239 54.4863 35.7271C53.5091 34.5828 53.0205 33.1325 53.0205 31.376C53.0205 30.1081 53.3452 28.9546 53.9946 27.9155C54.644 26.8703 55.5409 26.0446 56.6851 25.4385C57.8354 24.8324 59.0693 24.5293 60.3867 24.5293C61.7103 24.5293 62.8947 24.8231 63.9399 25.4106C64.9852 25.9982 65.8232 26.8053 66.4541 27.832C67.085 28.8587 67.4004 29.972 67.4004 31.1719C67.4004 32.3656 67.0881 33.5036 66.4634 34.5859C65.8387 35.6621 64.9821 36.5342 63.8936 37.2021ZM54.9688 31.0791C54.9688 32.1058 55.1945 33.1263 55.646 34.1406C56.1037 35.1488 56.7562 35.9714 57.6035 36.6084C58.4508 37.2454 59.4312 37.564 60.5444 37.564C62.1278 37.564 63.3617 36.9578 64.2461 35.7456C65.0439 34.6509 65.4429 33.2531 65.4429 31.5522C65.4429 29.8514 64.9543 28.3856 63.9771 27.1548C63.5008 26.5549 62.9163 26.0755 62.2236 25.7168C61.5371 25.3519 60.8413 25.1694 60.1362 25.1694C59.4373 25.1694 58.8621 25.2467 58.4106 25.4014C57.9653 25.556 57.5602 25.7694 57.1953 26.0415C56.8304 26.3075 56.5088 26.626 56.2305 26.9971C55.9521 27.3682 55.7202 27.7702 55.5347 28.2031C55.1574 29.0938 54.9688 30.0524 54.9688 31.0791ZM75.2809 31.3481C75.2067 31.3358 75.0985 31.2956 74.9562 31.2275C74.4429 30.9925 74.0409 30.875 73.7502 30.875C73.4595 30.875 73.1533 31.0575 72.8317 31.4224C72.5163 31.7811 72.3586 32.1058 72.3586 32.3965V36.5898C72.3586 37.0537 72.6276 37.363 73.1657 37.5176C73.4007 37.5794 73.6203 37.6258 73.8244 37.6567C74.0285 37.6815 74.1584 37.7062 74.214 37.731C74.2759 37.7557 74.3068 37.8052 74.3068 37.8794C74.3068 37.9474 74.2759 37.9876 74.214 38H69.5661C69.5042 37.9876 69.4733 37.9443 69.4733 37.8701C69.4733 37.7588 69.6187 37.6846 69.9094 37.6475C70.5773 37.5485 70.9113 37.196 70.9113 36.5898V31.6821C70.9113 31.4224 70.7691 31.243 70.4846 31.144C70.3609 31.1007 70.2279 31.0667 70.0856 31.042C69.9434 31.0111 69.829 30.9832 69.7424 30.9585C69.662 30.9338 69.6094 30.9121 69.5846 30.8936C69.5661 30.8688 69.5568 30.8224 69.5568 30.7544C69.5568 30.6802 69.6032 30.6183 69.696 30.5688L72.0617 29.4556C72.1359 29.4185 72.1823 29.3999 72.2009 29.3999C72.306 29.3999 72.3586 29.4741 72.3586 29.6226V31.1255C72.3586 31.1997 72.3771 31.2368 72.4142 31.2368C72.4637 31.2368 72.5905 31.0915 72.7946 30.8008C73.3822 29.9782 73.8677 29.5669 74.2512 29.5669C74.4676 29.5669 74.7985 29.6535 75.2438 29.8267C75.6953 29.9998 75.9211 30.1452 75.9211 30.2627C75.9211 30.4049 75.8499 30.6214 75.7077 30.9121C75.5654 31.2028 75.4232 31.3481 75.2809 31.3481ZM82.8739 29.7896C83.146 29.8823 83.313 29.9287 83.3749 29.9287C83.4367 29.9287 83.4738 29.9287 83.4862 29.9287C83.5047 29.9225 83.5264 29.8823 83.5511 29.8081V25.021C83.5511 24.7612 83.4089 24.5819 83.1244 24.4829C83.0007 24.4396 82.8677 24.4056 82.7254 24.3809C82.5832 24.3499 82.4688 24.3221 82.3822 24.2974C82.3018 24.2726 82.2492 24.251 82.2245 24.2324C82.2059 24.2077 82.1966 24.1613 82.1966 24.0933C82.1966 24.019 82.243 23.9572 82.3358 23.9077L84.7015 22.7944C84.7757 22.7573 84.8221 22.7388 84.8407 22.7388C84.9458 22.7388 84.9984 22.813 84.9984 22.9614V36.1724C85.0293 36.4445 85.1066 36.6393 85.2303 36.7568C85.354 36.8743 85.555 36.9331 85.8334 36.9331L86.3714 36.896C86.4086 36.896 86.4271 36.9331 86.4271 37.0073C86.4271 37.0754 86.3807 37.131 86.2879 37.1743L83.8202 38.1948C83.746 38.2319 83.681 38.2505 83.6254 38.2505C83.5759 38.2505 83.5511 38.1732 83.5511 38.0186V37.1743C83.5511 37.1125 83.5357 37.0815 83.5047 37.0815C83.4615 37.0815 83.2048 37.2207 82.7347 37.499C81.2936 38.3525 80.0783 38.4793 79.0887 37.8794C78.2971 37.397 77.7621 36.6331 77.4837 35.5879C77.3539 35.0993 77.2889 34.5828 77.2889 34.0386C77.2889 33.4881 77.4003 32.9438 77.6229 32.4058C77.8518 31.8615 78.1641 31.3853 78.5599 30.9771C79.432 30.0864 80.4834 29.6411 81.7142 29.6411C82.2152 29.6411 82.6018 29.6906 82.8739 29.7896ZM78.6898 33.7695C78.6898 34.7035 78.9496 35.5229 79.4691 36.228C79.9886 36.9269 80.7123 37.2764 81.64 37.2764C82.0482 37.2764 82.4688 37.1774 82.9017 36.9795C83.3347 36.7754 83.5511 36.6208 83.5511 36.5156V31.7285C83.5511 31.611 83.4707 31.4718 83.3099 31.311C82.8151 30.6307 82.1564 30.2905 81.3338 30.2905C80.5174 30.2905 79.8711 30.6369 79.3949 31.3296C78.9248 32.0161 78.6898 32.8294 78.6898 33.7695ZM89.3257 33.1108C89.2206 33.1108 89.168 33.3366 89.168 33.7881C89.168 34.7467 89.4525 35.5508 90.0215 36.2002C90.5905 36.8496 91.2956 37.1743 92.1368 37.1743C92.9841 37.1743 93.7974 36.8094 94.5767 36.0796C94.5891 36.0672 94.6045 36.061 94.6231 36.061H94.6695C94.7066 36.061 94.7406 36.092 94.7715 36.1538C94.8086 36.2095 94.8426 36.2466 94.8736 36.2651C94.1561 37.1372 93.3119 37.7402 92.3409 38.0742C92.0069 38.1917 91.6296 38.2505 91.209 38.2505C90.7884 38.2505 90.3617 38.1361 89.9287 37.9072C89.4958 37.6722 89.1247 37.366 88.8155 36.9888C88.1599 36.2033 87.8321 35.2261 87.8321 34.0571C87.8321 32.882 88.1877 31.812 88.899 30.8472C89.6164 29.8823 90.5998 29.3999 91.8492 29.3999C92.746 29.3999 93.4789 29.8019 94.0479 30.606C94.6169 31.4038 94.9014 32.1058 94.9014 32.7119C94.9014 32.9779 94.8365 33.1108 94.7066 33.1108H89.3257ZM89.4278 32.2202C89.4278 32.3377 89.4834 32.3965 89.5948 32.3965H93.0923C93.2531 32.3965 93.3335 32.3006 93.3335 32.1089C93.3335 31.6636 93.1325 31.209 92.7305 30.7451C92.3347 30.2751 91.8986 30.04 91.4224 30.04C90.9585 30.04 90.5349 30.2503 90.1514 30.6709C89.7741 31.0915 89.5329 31.5708 89.4278 32.1089V32.2202ZM102.671 31.3481C102.596 31.3358 102.488 31.2956 102.346 31.2275C101.833 30.9925 101.431 30.875 101.14 30.875C100.849 30.875 100.543 31.0575 100.221 31.4224C99.906 31.7811 99.7483 32.1058 99.7483 32.3965V36.5898C99.7483 37.0537 100.017 37.363 100.555 37.5176C100.79 37.5794 101.01 37.6258 101.214 37.6567C101.418 37.6815 101.548 37.7062 101.604 37.731C101.666 37.7557 101.697 37.8052 101.697 37.8794C101.697 37.9474 101.666 37.9876 101.604 38H96.9558C96.8939 37.9876 96.863 37.9443 96.863 37.8701C96.863 37.7588 97.0084 37.6846 97.299 37.6475C97.967 37.5485 98.301 37.196 98.301 36.5898V31.6821C98.301 31.4224 98.1587 31.243 97.8742 31.144C97.7505 31.1007 97.6176 31.0667 97.4753 31.042C97.3331 31.0111 97.2186 30.9832 97.132 30.9585C97.0516 30.9338 96.9991 30.9121 96.9743 30.8936C96.9558 30.8688 96.9465 30.8224 96.9465 30.7544C96.9465 30.6802 96.9929 30.6183 97.0857 30.5688L99.4514 29.4556C99.5256 29.4185 99.572 29.3999 99.5905 29.3999C99.6957 29.3999 99.7483 29.4741 99.7483 29.6226V31.1255C99.7483 31.1997 99.7668 31.2368 99.8039 31.2368C99.8534 31.2368 99.9802 31.0915 100.184 30.8008C100.772 29.9782 101.257 29.5669 101.641 29.5669C101.857 29.5669 102.188 29.6535 102.634 29.8267C103.085 29.9998 103.311 30.1452 103.311 30.2627C103.311 30.4049 103.24 30.6214 103.097 30.9121C102.955 31.2028 102.813 31.3481 102.671 31.3481ZM113.264 37.7031C113.264 37.6536 113.292 37.6289 113.348 37.6289H113.607C114.214 37.6289 114.699 37.499 115.064 37.2393C115.435 36.9795 115.621 36.6764 115.621 36.3301V26.0601C115.621 25.9302 115.593 25.859 115.537 25.8467C115.488 25.8281 115.426 25.8127 115.352 25.8003H111.789C111.214 25.924 110.837 26.3662 110.657 27.127C110.558 27.5352 110.5 27.798 110.481 27.9155C110.462 28.0269 110.428 28.0825 110.379 28.0825H110.212C110.175 28.0825 110.156 28.0701 110.156 28.0454V27.7393L110.5 24.8447C110.537 24.653 110.599 24.5571 110.685 24.5571C110.772 24.5571 110.864 24.619 110.963 24.7427C111.062 24.8602 111.251 24.9189 111.529 24.9189H121.53C121.796 24.9189 121.957 24.888 122.013 24.8262C122.068 24.7643 122.121 24.7056 122.17 24.6499C122.22 24.5881 122.282 24.5571 122.356 24.5571C122.436 24.5571 122.486 24.5881 122.504 24.6499C122.529 24.7118 122.548 24.7767 122.56 24.8447L122.903 27.7393V28.0454C122.903 28.0701 122.885 28.0825 122.848 28.0825H122.681C122.631 28.0825 122.597 28.0361 122.579 27.9434C122.48 27.3249 122.337 26.8363 122.152 26.4775C121.966 26.1126 121.673 25.8869 121.271 25.8003H117.699C117.625 25.8127 117.56 25.8281 117.504 25.8467C117.455 25.859 117.43 25.9302 117.43 26.0601V36.3301C117.43 36.6764 117.612 36.9795 117.977 37.2393C118.348 37.499 118.837 37.6289 119.443 37.6289H119.712C119.761 37.6289 119.786 37.6536 119.786 37.7031V37.9258C119.786 37.9753 119.761 38 119.712 38H113.338C113.289 38 113.264 37.9753 113.264 37.9258V37.7031ZM124.763 33.8345C124.763 32.616 125.193 31.5708 126.052 30.6987C126.918 29.8205 127.954 29.3813 129.16 29.3813C130.366 29.3813 131.415 29.8081 132.305 30.6616C133.196 31.509 133.641 32.5573 133.641 33.8066C133.641 35.056 133.218 36.1105 132.37 36.9702C131.529 37.8237 130.472 38.2505 129.198 38.2505C127.923 38.2505 126.866 37.8175 126.025 36.9517C125.184 36.0858 124.763 35.0467 124.763 33.8345ZM127.073 36.2188C127.679 37.2393 128.505 37.7495 129.55 37.7495C130.36 37.7495 130.979 37.4248 131.406 36.7754C131.838 36.126 132.055 35.3281 132.055 34.3818C132.055 33.4355 131.752 32.4645 131.146 31.4688C130.546 30.473 129.736 29.9751 128.715 29.9751C127.967 29.9751 127.376 30.2998 126.943 30.9492C126.516 31.5924 126.303 32.4119 126.303 33.4077C126.303 34.3973 126.56 35.3343 127.073 36.2188ZM141.29 29.7896C141.562 29.8823 141.729 29.9287 141.791 29.9287C141.853 29.9287 141.89 29.9287 141.902 29.9287C141.921 29.9225 141.942 29.8823 141.967 29.8081V25.021C141.967 24.7612 141.825 24.5819 141.54 24.4829C141.417 24.4396 141.284 24.4056 141.142 24.3809C140.999 24.3499 140.885 24.3221 140.798 24.2974C140.718 24.2726 140.665 24.251 140.641 24.2324C140.622 24.2077 140.613 24.1613 140.613 24.0933C140.613 24.019 140.659 23.9572 140.752 23.9077L143.118 22.7944C143.192 22.7573 143.238 22.7388 143.257 22.7388C143.362 22.7388 143.414 22.813 143.414 22.9614V36.1724C143.445 36.4445 143.523 36.6393 143.646 36.7568C143.77 36.8743 143.971 36.9331 144.249 36.9331L144.788 36.896C144.825 36.896 144.843 36.9331 144.843 37.0073C144.843 37.0754 144.797 37.131 144.704 37.1743L142.236 38.1948C142.162 38.2319 142.097 38.2505 142.041 38.2505C141.992 38.2505 141.967 38.1732 141.967 38.0186V37.1743C141.967 37.1125 141.952 37.0815 141.921 37.0815C141.878 37.0815 141.621 37.2207 141.151 37.499C139.71 38.3525 138.494 38.4793 137.505 37.8794C136.713 37.397 136.178 36.6331 135.9 35.5879C135.77 35.0993 135.705 34.5828 135.705 34.0386C135.705 33.4881 135.816 32.9438 136.039 32.4058C136.268 31.8615 136.58 31.3853 136.976 30.9771C137.848 30.0864 138.9 29.6411 140.13 29.6411C140.631 29.6411 141.018 29.6906 141.29 29.7896ZM137.106 33.7695C137.106 34.7035 137.366 35.5229 137.885 36.228C138.405 36.9269 139.128 37.2764 140.056 37.2764C140.464 37.2764 140.885 37.1774 141.318 36.9795C141.751 36.7754 141.967 36.6208 141.967 36.5156V31.7285C141.967 31.611 141.887 31.4718 141.726 31.311C141.231 30.6307 140.573 30.2905 139.75 30.2905C138.934 30.2905 138.287 30.6369 137.811 31.3296C137.341 32.0161 137.106 32.8294 137.106 33.7695ZM151.982 36.4692C151.982 36.63 152.056 36.7599 152.204 36.8589C152.359 36.9517 152.535 36.998 152.733 36.998C152.931 36.998 153.095 36.9486 153.225 36.8496C153.361 36.7445 153.454 36.6919 153.503 36.6919C153.553 36.6919 153.577 36.7599 153.577 36.896C153.577 37.0259 153.515 37.1372 153.392 37.23C152.464 37.9103 151.836 38.2505 151.508 38.2505C151.113 38.2505 150.791 37.8392 150.544 37.0166C150.525 36.9548 150.51 36.9269 150.497 36.9331C149.73 37.5083 149.248 37.8547 149.05 37.9722C148.543 38.2629 148.033 38.3092 147.519 38.1113C147.012 37.9134 146.644 37.5856 146.415 37.1279C146.304 36.8929 146.248 36.6424 146.248 36.3765C146.248 35.8507 146.443 35.4333 146.833 35.124C147.222 34.8148 147.964 34.5179 149.059 34.2334C149.43 34.1344 149.761 34.0076 150.052 33.853C150.343 33.6984 150.494 33.5994 150.506 33.5562C150.525 33.5129 150.534 33.4727 150.534 33.4355V31.6543C150.534 30.9554 150.262 30.4637 149.718 30.1792C149.539 30.0864 149.322 30.04 149.068 30.04C148.821 30.04 148.567 30.139 148.308 30.3369C148.054 30.5348 147.927 30.8162 147.927 31.1812L147.974 31.543C147.937 31.6172 147.714 31.7409 147.306 31.9141C146.898 32.0872 146.663 32.18 146.601 32.1924C146.502 32.1924 146.452 32.0749 146.452 31.8398C146.452 31.5986 146.523 31.3327 146.666 31.042C146.808 30.7513 147.009 30.4854 147.269 30.2441C147.875 29.6813 148.567 29.3999 149.347 29.3999C150.126 29.3999 150.76 29.6164 151.249 30.0493C151.737 30.4761 151.982 30.9863 151.982 31.5801V36.4692ZM147.705 36.2002C147.705 36.4971 147.819 36.7568 148.048 36.9795C148.277 37.196 148.537 37.3042 148.827 37.3042C149.124 37.3042 149.483 37.1805 149.903 36.9331C150.324 36.6795 150.534 36.4198 150.534 36.1538V34.2705C150.534 34.2025 150.519 34.1685 150.488 34.1685C150.457 34.1685 150.435 34.1715 150.423 34.1777L148.271 35.1797C148.048 35.3405 147.896 35.4766 147.816 35.5879C147.742 35.6992 147.705 35.9033 147.705 36.2002ZM164.093 29.6504C164.161 29.6689 164.195 29.7122 164.195 29.7803C164.195 29.8483 164.188 29.8947 164.176 29.9194C164.164 29.938 164.133 29.9565 164.083 29.9751C164.04 29.9875 163.975 29.9998 163.888 30.0122C163.808 30.0246 163.678 30.0493 163.499 30.0864C163.319 30.1174 163.159 30.241 163.016 30.4575C162.874 30.674 162.723 30.974 162.562 31.3574L158.201 42.1655L157.598 43.4458C157.444 43.7736 157.119 43.9375 156.624 43.9375C156.408 43.9375 156.235 43.8664 156.105 43.7241C155.975 43.5819 155.91 43.4118 155.91 43.2139C155.91 43.0221 155.956 42.8799 156.049 42.7871C156.148 42.7005 156.262 42.6294 156.392 42.5737C156.522 42.5181 156.655 42.4655 156.791 42.416C156.934 42.3727 157.091 42.2676 157.264 42.1006C157.438 41.9398 157.54 41.8192 157.571 41.7388C158.61 39.4132 159.129 38.1979 159.129 38.0928C159.129 37.9876 159.067 37.8577 158.944 37.7031L155.882 31.311C155.653 30.6864 155.261 30.2843 154.704 30.105C154.661 30.0926 154.608 30.0833 154.546 30.0771C154.286 30.0524 154.157 29.9751 154.157 29.8452C154.157 29.7153 154.231 29.6504 154.379 29.6504H158.508C158.557 29.6504 158.582 29.6999 158.582 29.7988C158.582 29.8916 158.539 29.9565 158.452 29.9937C158.365 30.0246 158.174 30.04 157.877 30.04C157.401 30.04 157.162 30.2256 157.162 30.5967L157.246 30.8193L159.649 35.9683C159.772 36.2837 159.896 36.2744 160.02 35.9404C160.032 35.9095 160.11 35.7085 160.252 35.3374C161.093 33.2036 161.563 31.9697 161.662 31.6357C161.767 31.3018 161.82 31.0513 161.82 30.8843C161.82 30.7173 161.73 30.541 161.551 30.3555C161.377 30.1699 161.136 30.0771 160.827 30.0771C160.524 30.0771 160.372 29.9875 160.372 29.8081C160.372 29.703 160.44 29.6504 160.576 29.6504H164.093Z" fill="#1B3764"/>
</svg>
